<svg width="448" height="354" viewBox="0 0 448 354" fill="none" xmlns="http://www.w3.org/2000/svg">
  <style>
    @keyframes gravitate {
      0% {
        transform: translateY(24px);
      }

      50% {
        transform: translateY(0px);
      }

      100% {
        transform: translateY(24px);
      }
    }

    #animate1 {
      transform: translateY(24px);
      animation: gravitate 4s ease infinite;
    }

    #animate2 {
      transform: translateY(36px);
      animation: gravitate 8s ease infinite;
    }
  </style>
  <g id="animate1">
    <g filter="url(#filter0_d)">
      <path d="M288 107L349 142.5V213.5L288 249L227 213.5V142.5L227.601 142.15L288 107Z" fill="white" />
      <path
        d="M229 212.35V145.296L286 178.9V245.522L229 212.35ZM290 245.522V178.911L347 145.966V212.35L290 245.522ZM288 109.314L345.014 142.494L288.01 175.441L231.559 142.161L288 109.314Z"
        stroke="black" stroke-width="4" />
    </g>
    <path d="M348 211.421L289 245.273V177.342L348 143.721V211.421Z" fill="#B0B0B0" stroke="black" stroke-width="2" />
  </g>
  <g id="animate2">
    <g filter="url(#filter1_d)">
      <path d="M54 201L75 213V237L54 249L33 237V213L33.2071 212.882L54 201Z" fill="white" />
      <path
        d="M35 235.839V216.23L52 226.071V245.554L35 235.839ZM56 245.554V226.082L73 216.435V235.839L56 245.554ZM54 203.304L70.9584 212.994L54.0098 222.613L37.2186 212.893L54 203.304Z"
        stroke="black" stroke-width="4" />
    </g>
    <path d="M72 235.423L55 245.266V225.503L72 215.729V235.423Z" fill="#B0B0B0" stroke="black" stroke-width="2" />
  </g>
  <defs>
    <filter id="filter0_d" x="227" y="107" width="198" height="218" filterUnits="userSpaceOnUse"
      color-interpolation-filters="sRGB">
      <feFlood flood-opacity="0" result="BackgroundImageFix" />
      <feColorMatrix in="SourceAlpha" type="matrix" values="0 0 0 0 0 0 0 0 0 0 0 0 0 0 0 0 0 0 127 0" />
      <feOffset dx="60" dy="60" />
      <feGaussianBlur stdDeviation="8" />
      <feColorMatrix type="matrix" values="0 0 0 0 0 0 0 0 0 0 0 0 0 0 0 0 0 0 0.5 0" />
      <feBlend mode="normal" in2="BackgroundImageFix" result="effect1_dropShadow" />
      <feBlend mode="normal" in="SourceGraphic" in2="effect1_dropShadow" result="shape" />
    </filter>
    <filter id="filter1_d" x="33" y="201" width="118" height="124" filterUnits="userSpaceOnUse"
      color-interpolation-filters="sRGB">
      <feFlood flood-opacity="0" result="BackgroundImageFix" />
      <feColorMatrix in="SourceAlpha" type="matrix" values="0 0 0 0 0 0 0 0 0 0 0 0 0 0 0 0 0 0 127 0" />
      <feOffset dx="60" dy="60" />
      <feGaussianBlur stdDeviation="8" />
      <feColorMatrix type="matrix" values="0 0 0 0 0 0 0 0 0 0 0 0 0 0 0 0 0 0 0.5 0" />
      <feBlend mode="normal" in2="BackgroundImageFix" result="effect1_dropShadow" />
      <feBlend mode="normal" in="SourceGraphic" in2="effect1_dropShadow" result="shape" />
    </filter>
  </defs>
</svg>